<svg xmlns="http://www.w3.org/2000/svg" width="101.74" height="66.41" viewBox="0 0 101.74 66.41"><title>logo</title><path d="M.15.58h8V18.29h6.62v6.3H.15Zm12.6,21.13v-.86H4.68V3.46H3.75V21.71Z" fill="#fff"/><path d="M14.4,12.6a12.27,12.27,0,0,1,1-4.9A12.6,12.6,0,0,1,22.11,1,12.6,12.6,0,0,1,31.9,1,12.6,12.6,0,0,1,38.61,7.7a12.28,12.28,0,0,1,1,4.9,12.27,12.27,0,0,1-1,4.9,12.6,12.6,0,0,1-6.71,6.71,12.6,12.6,0,0,1-9.79,0,12.6,12.6,0,0,1-6.71-6.71A12.27,12.27,0,0,1,14.4,12.6Zm3.38,0a9,9,0,0,0,.72,3.58,9.29,9.29,0,0,0,4.91,4.91,9.27,9.27,0,0,0,7.16,0,9.29,9.29,0,0,0,4.91-4.91A9.27,9.27,0,0,0,35.5,9,9.29,9.29,0,0,0,30.58,4.1a9.27,9.27,0,0,0-7.16,0A9.29,9.29,0,0,0,18.51,9,9,9,0,0,0,17.79,12.6ZM27,20.88a8,8,0,0,1-3.22-.65,8.43,8.43,0,0,1-4.41-4.41,8,8,0,0,1-.65-3.22,8,8,0,0,1,.65-3.22A8.43,8.43,0,0,1,23.78,5a8.33,8.33,0,0,1,6.44,0,8.43,8.43,0,0,1,4.41,4.41,8,8,0,0,1,.65,3.22,8,8,0,0,1-.65,3.22,8.43,8.43,0,0,1-4.41,4.41A8,8,0,0,1,27,20.88ZM22,12.6a4.9,4.9,0,0,0,.4,2A5.05,5.05,0,0,0,25,17.24a5.06,5.06,0,0,0,3.92,0,5.06,5.06,0,0,0,2.68-2.68,5.06,5.06,0,0,0,0-3.92A5.06,5.06,0,0,0,29,8,5.06,5.06,0,0,0,25,8a5.06,5.06,0,0,0-2.68,2.68A4.9,4.9,0,0,0,22,12.6Z" fill="#fff"/><path d="M41,12.6a12.93,12.93,0,0,1,1-5.2,12.12,12.12,0,0,1,2.74-4,11.94,11.94,0,0,1,4-2.54A13.58,13.58,0,0,1,53.71,0a15.28,15.28,0,0,1,3.65.4,17.29,17.29,0,0,1,2.75.9,13,13,0,0,1,2.3,1.26L58.65,9.22a12.91,12.91,0,0,0-1.26-.83,12.19,12.19,0,0,0-1.46-.56A6.32,6.32,0,0,0,54,7.56,5.2,5.2,0,0,0,50.31,9a4.94,4.94,0,0,0-1.1,1.6,4.89,4.89,0,0,0-.4,2,4.71,4.71,0,0,0,.41,2,5,5,0,0,0,1.13,1.6,5.36,5.36,0,0,0,1.69,1.08,5.56,5.56,0,0,0,2.12.4,6.72,6.72,0,0,0,2.05-.29,7.54,7.54,0,0,0,1.51-.65A5.56,5.56,0,0,0,59,15.77l3.78,6.66a10.68,10.68,0,0,1-2.3,1.4,19.56,19.56,0,0,1-2.77.94A14.46,14.46,0,0,1,54,25.2a14.26,14.26,0,0,1-5.18-.92,12.22,12.22,0,0,1-4.1-2.57,11.68,11.68,0,0,1-2.7-4A13.16,13.16,0,0,1,41,12.6Zm4.54,0a8.78,8.78,0,0,1,.59-3.24,7.88,7.88,0,0,1,1.67-2.63A7.8,7.8,0,0,1,50.47,5a8.87,8.87,0,0,1,3.46-.65,10.07,10.07,0,0,1,1.67.13,7.57,7.57,0,0,1,1.24.31,4.73,4.73,0,0,1,1,.43l.5-.86q-.58-.25-1.22-.47a13.78,13.78,0,0,0-1.4-.32,10.39,10.39,0,0,0-1.84-.14A9.64,9.64,0,0,0,50.42,4a9,9,0,0,0-3,1.85,9.1,9.1,0,0,0-2.83,6.71,9.45,9.45,0,0,0,.74,3.82,8.6,8.6,0,0,0,2,2.9,9.05,9.05,0,0,0,3,1.85,10.37,10.37,0,0,0,3.67.65,9.53,9.53,0,0,0,1.94-.18,11.55,11.55,0,0,0,1.48-.4,7.24,7.24,0,0,0,1.22-.58l-.5-.86a4.55,4.55,0,0,1-1.08.54,8.08,8.08,0,0,1-1.3.38,8.5,8.5,0,0,1-1.76.16,9.33,9.33,0,0,1-3.56-.65,7.9,7.9,0,0,1-2.68-1.76,7.73,7.73,0,0,1-1.69-2.63A8.78,8.78,0,0,1,45.58,12.6Z" fill="#fff"/><path d="M71.71.58h5.76l9.11,24H79l-.79-2.16H71l-.79,2.16H62.6ZM68,21.71l.68-1.8H80.53l.68,1.8h1L75.28,3.46H73.91L67,21.71ZM74.59,4.32,80.21,19H69Zm1.62,12.82-1.62-4.21L73,17.14Z" fill="#fff"/><path d="M87.12.58h8V18.29h6.62v6.3H87.12Zm12.6,21.13v-.86H91.66V3.46h-.94V21.71Z" fill="#fff"/><path d="M14,30.67v35H1.93A2.49,2.49,0,0,1,.5,65.37a1.13,1.13,0,0,1-.5-1A1.34,1.34,0,0,1,1,63q.85-.28,1-.35a.79.79,0,0,0,.29-.3A2.2,2.2,0,0,0,2.62,61V35.34A2.2,2.2,0,0,0,2.31,34a.8.8,0,0,0-.29-.3l-1-.35A1.34,1.34,0,0,1,0,32a1.13,1.13,0,0,1,.5-1,2.49,2.49,0,0,1,1.42-.35H14Zm8,16.89a27.91,27.91,0,0,1,3.56.9,10,10,0,0,1,2.25,1.1,7.33,7.33,0,0,1,2.63,2.91,8.87,8.87,0,0,1,.91,4,8.13,8.13,0,0,1-3.23,6.85,10.22,10.22,0,0,1-3.68,1.81,21.52,21.52,0,0,1-5.28.53H16.1V63a6.16,6.16,0,0,0,1.62-.29A2.64,2.64,0,0,0,18.77,62a4.34,4.34,0,0,0,.85-3V53.21a7.22,7.22,0,0,0-.22-2,3.13,3.13,0,0,0-.81-1.31,2.69,2.69,0,0,0-1-.67,6.47,6.47,0,0,0-1.46-.33V46.23A6.38,6.38,0,0,0,17.65,46a2.64,2.64,0,0,0,1-.59,3.53,3.53,0,0,0,1-2.13V37.4a5,5,0,0,0-.23-1.45,3.8,3.8,0,0,0-.56-1.19,3.16,3.16,0,0,0-1.09-.87,5.13,5.13,0,0,0-1.63-.38V30.67h3q5.85,0,8.93,2.41a7.39,7.39,0,0,1,2.16,2.67,8,8,0,0,1,0,6.78A7.2,7.2,0,0,1,28,45.18a8.5,8.5,0,0,1-2.31,1.33A26.82,26.82,0,0,1,22,47.56Z" fill="#d61e35"/><path d="M43.72,37.19,45,42.51,40.48,59.09a4.87,4.87,0,0,0-.21,1.33,2.37,2.37,0,0,0,1.51,2.31l.9.41a1.32,1.32,0,0,1,.85,1.28q0,1.28-1.87,1.28H35.15a2.52,2.52,0,0,1-1.5-.4,1.27,1.27,0,0,1-.55-1.09q0-.74,1.13-1.23a8.34,8.34,0,0,0,1.55-.83,4.57,4.57,0,0,0,1-1,9.1,9.1,0,0,0,1.18-2.8Zm1.77-6.52H55.84L63,60.84a10.52,10.52,0,0,0,.46,1.41,1.77,1.77,0,0,0,1,.8,2.69,2.69,0,0,1,.92.56,1.1,1.1,0,0,1,.26.77q0,1.34-2,1.33H50.83a1.91,1.91,0,0,1-1.23-.37,1.38,1.38,0,0,1-.26-1.76,3.24,3.24,0,0,1,.92-.64,1.82,1.82,0,0,0,.72-.56,1.36,1.36,0,0,0,.21-.77,3.46,3.46,0,0,0-.08-.77l-.82-3.72H43.13l.69-3.06h5.75L44.85,33.19Z" fill="#d61e35"/><path d="M81.77,30.67V60.84a2.16,2.16,0,0,0,.39,1.44,1,1,0,0,0,.38.32q.18.06,1.18.32a1.37,1.37,0,0,1,1.23,1.41,1.23,1.23,0,0,1-.67,1.08,3.17,3.17,0,0,1-1.62.31h-13a2.49,2.49,0,0,1-1.42-.35,1.13,1.13,0,0,1-.5-1,1.34,1.34,0,0,1,1-1.39q.85-.28,1-.35a.79.79,0,0,0,.29-.3A2.2,2.2,0,0,0,70.37,61V35.34A2.2,2.2,0,0,0,70.06,34a.8.8,0,0,0-.29-.3l-1-.35a1.34,1.34,0,0,1-1-1.39,1.13,1.13,0,0,1,.5-1,2.49,2.49,0,0,1,1.42-.35H81.77Zm7.88,17.87a22.11,22.11,0,0,1,3.63.8,8.72,8.72,0,0,1,2.3,1.18,5.55,5.55,0,0,1,1.66,1.9,5,5,0,0,1,.58,2.34v5.31q0,.82.54.82a.53.53,0,0,0,.35-.12,3,3,0,0,0,.4-.45,1.73,1.73,0,0,1,1.31-.87,1.23,1.23,0,0,1,.87.46,1.36,1.36,0,0,1,.44.92,3.74,3.74,0,0,1-.76,1.94,8.86,8.86,0,0,1-1.89,2A6.72,6.72,0,0,1,96.78,66a10.08,10.08,0,0,1-2.9.37,7.07,7.07,0,0,1-5.29-1.94,7.39,7.39,0,0,1-1.9-5.4V54.75q0-1.44,0-1.67A3.49,3.49,0,0,0,86,51.31a3.08,3.08,0,0,0-2.13-1.05V47.51a3.92,3.92,0,0,0,2-.72,2.41,2.41,0,0,0,.71-1.05A6,6,0,0,0,86.69,44v-6.8a3.86,3.86,0,0,0-.63-2.41,4.33,4.33,0,0,0-2.27-1.26V30.67h.67q2.85,0,4.85.21a10.71,10.71,0,0,1,5.31,2A7.84,7.84,0,0,1,98,39.63a8.13,8.13,0,0,1-2.26,5.93,7.85,7.85,0,0,1-2.22,1.59A27.27,27.27,0,0,1,89.65,48.54Z" fill="#d61e35"/></svg>